PathFileType	4	(X/Y/Z)	C:\Users\Basilio\Documents\Thesis Gigler\squatting_fais\c3dfiles\058\SLS_front_pre2\markers_experimental.trc
DataRate	CameraRate	NumFrames	NumMarkers	Units	OrigDataRate	OrigDataStartFrame	OrigNumFrames
200.000000	200.000000	4	61	mm	200.000000	156	1252
Frame#	Time	FHD			LBHD			RBHD			C7			T10			CLAV			LSHO			LUUPA			LMUPA			LDUPA			LLEP			LMEP			LUL			LRFIN			RSHO			RUPA1			RMUPA			RDUPA			RLEP			RMEP			RRAD			RUL			RUFIN			LASI			RASI			USACR			LSACR			RSACR			LTHI1			LTHI2			LTHI3			LTHI4			LLFC			LMFC			LTIB1			LTIB2			LTIB3			LTIB4			LLMAL			LMMAL			LHEE			LMT1			LMT2			LMT5			RTHI			RTHI2			RTHI3			RTHI4			RLFC			RMFC			RTIB2			RTIB3			RTIB4			RLMAL			RMMAL			RHEE			RMT1			RMT2			RMT5			RTIB1			LRAD			
		X1	Y1	Z1	X2	Y2	Z2	X3	Y3	Z3	X4	Y4	Z4	X5	Y5	Z5	X6	Y6	Z6	X7	Y7	Z7	X8	Y8	Z8	X9	Y9	Z9	X10	Y10	Z10	X11	Y11	Z11	X12	Y12	Z12	X13	Y13	Z13	X14	Y14	Z14	X15	Y15	Z15	X16	Y16	Z16	X17	Y17	Z17	X18	Y18	Z18	X19	Y19	Z19	X20	Y20	Z20	X21	Y21	Z21	X22	Y22	Z22	X23	Y23	Z23	X24	Y24	Z24	X25	Y25	Z25	X26	Y26	Z26	X27	Y27	Z27	X28	Y28	Z28	X29	Y29	Z29	X30	Y30	Z30	X31	Y31	Z31	X32	Y32	Z32	X33	Y33	Z33	X34	Y34	Z34	X35	Y35	Z35	X36	Y36	Z36	X37	Y37	Z37	X38	Y38	Z38	X39	Y39	Z39	X40	Y40	Z40	X41	Y41	Z41	X42	Y42	Z42	X43	Y43	Z43	X44	Y44	Z44	X45	Y45	Z45	X46	Y46	Z46	X47	Y47	Z47	X48	Y48	Z48	X49	Y49	Z49	X50	Y50	Z50	X51	Y51	Z51	X52	Y52	Z52	X53	Y53	Z53	X54	Y54	Z54	X55	Y55	Z55	X56	Y56	Z56	X57	Y57	Z57	X58	Y58	Z58	X59	Y59	Z59	X60	Y60	Z60	X61	Y61	Z61	

157	0.78	-318.4461364746094	1808.58740234375	-609.5293579101564	-470.6018371582032	1752.893188476563	-688.3901367187501	-302.2957153320313	1816.90478515625	-751.0181884765626	-476.6156616210939	1589.238037109375	-702.8576660156251	-462.8199157714845	1282.705444335938	-696.7734375000001	-319.2262573242188	1551.453125	-687.7918090820314	-331.5807800292969	1602.74072265625	-843.3026123046877	-186.2422180175782	1520.405883789063	-965.4523925781252	-157.2416229248047	1557.771362304688	-946.7476806640627	-116.6952056884766	1519.477783203125	-968.2708740234377	-38.82543182373048	1519.950805664063	-961.5643310546877	-34.56988143920899	1463.153930664063	-929.7937622070315	231.2649688720704	1551.553588867188	-922.1663818359377	324.6738281250001	1546.619750976563	-839.639099121094	-350.9686279296876	1595.807495117188	-532.0610961914064	-196.9163818359376	1499.368896484375	-420.1840209960939	-171.6586456298828	1538.349853515625	-440.6148986816407	-127.6589050292969	1506.32275390625	-418.3196105957032	-59.91648101806642	1496.14306640625	-422.7155761718751	-50.86059951782228	1440.079833984375	-475.0447998046876	210.0949707031251	1528.792358398438	-505.7033081054689	210.1516265869141	1539.172973632813	-425.022674560547	303.5557556152344	1548.973266601563	-491.5391845703126	-282.3687438964844	1107.956665039063	-851.498718261719	-259.0769042968751	1083.475219726563	-611.2681274414064	-466.9690856933595	1161.722412109375	-697.5727539062501	-476.489959716797	1131.951538085938	-727.1597290039064	-463.7981262207032	1127.248413085938	-671.3168945312501	-237.9410095214844	853.8677368164065	-938.151550292969	-183.3340911865235	789.5053710937502	-932.1065063476565	-144.5070495605469	800.9484863281252	-900.992370605469	-191.1875305175782	730.3801269531251	-931.1088867187502	-150.977523803711	638.5081787109376	-925.8677368164065	-145.394760131836	620.3050537109376	-799.739440917969	-52.93120574951173	529.7337646484376	-889.9843750000002	-78.88449096679689	484.2304077148439	-956.7920532226565	-43.45237731933594	486.6593627929689	-928.2214965820315	-12.9530611038208	410.0210571289064	-910.2946777343752	5.671695232391358	208.3001098632813	-950.1135864257815	17.87956237792969	217.8730010986329	-857.7604980468752	-46.37644195556641	151.4957733154297	-906.6378173828127	167.5040740966797	196.3775329589844	-871.0638427734377	175.6140289306641	207.3058166503907	-915.4627685546877	139.1593170166016	181.6880035400391	-974.742858886719	-360.2563171386719	866.253845214844	-557.6176147460939	-322.3178100585938	812.1757812500002	-560.0410156250001	-289.5011291503907	813.6337890625002	-562.3133544921876	-348.6291503906251	734.2473754882814	-580.6426391601564	-340.5478210449219	554.4201049804689	-611.2606811523439	-300.6391296386719	550.9202880859376	-742.7073364257814	-337.2077026367188	273.4346923828126	-650.9963378906251	-300.4522094726563	267.9482421875001	-680.9610595703126	-310.8540649414063	226.1982116699219	-720.8325805664064	-373.4594116210938	117.131576538086	-690.5555419921876	-341.0910034179688	144.4710540771485	-775.2279052734377	-438.2939453125001	102.3925018310547	-755.6721801757814	-229.4714813232422	60.9082374572754	-769.1629638671877	-222.690170288086	58.19054412841798	-716.5953979492189	-271.5733642578126	26.77014541625977	-665.0020141601564	nan	nan	nan	nan	nan	nan	
158	0.785	-318.5228271484376	1808.570190429688	-609.5400390625001	-470.6391906738282	1752.899780273438	-688.4426269531251	-302.2994079589844	1816.951049804688	-750.9500122070314	-476.6739196777345	1589.234497070313	-702.8560791015626	-462.8935546875001	1282.788696289063	-696.7960205078126	-319.3031921386719	1551.429321289063	-687.7446289062501	-331.5866699218751	1602.733642578125	-843.2602539062502	-186.2227478027344	1520.55029296875	-965.3680419921877	-157.1260986328125	1557.895141601563	-946.6201171875002	-116.6027297973633	1519.650268554688	-968.192810058594	-38.86640167236329	1520.037353515625	-961.4011230468752	-34.54448699951173	1463.213134765625	-929.5979614257815	231.2870788574219	1551.647583007813	-922.1444091796877	324.6828002929688	1546.691040039063	-839.6162719726565	-351.0947875976563	1595.685424804688	-531.9671630859376	-196.9489440917969	1499.486328125	-420.151580810547	-171.8947143554688	1538.326538085938	-440.6041564941407	-127.7548904418946	1506.414428710938	-418.2650756835939	-60.0731544494629	1496.166015625	-422.6511230468751	-50.96524047851564	1440.12060546875	-474.9767456054689	209.7009887695313	1528.667114257813	-505.6954040527345	210.1004943847657	1539.179443359375	-424.9076232910157	303.9927673339844	1549.562377929688	-490.9346923828126	-282.4929199218751	1107.950439453125	-851.586608886719	-259.1426391601563	1083.44140625	-611.3600463867189	-467.0005187988282	1161.7412109375	-697.6038208007814	-476.1620178222657	1131.988525390625	-727.3371582031251	-464.0320434570314	1127.18359375	-671.2243041992189	-238.162826538086	853.9524536132815	-938.2173461914065	-183.6913299560547	789.4526977539065	-932.1724243164065	-144.5770111083985	800.936218261719	-901.1157226562502	-191.4033660888672	730.4342041015626	-931.1881103515627	-151.416748046875	638.4679565429689	-926.0043945312502	-145.5904083251953	620.1638793945314	-798.9089355468752	-53.40463638305665	529.5274047851564	-890.1802368164065	-79.48474884033205	484.1452941894532	-957.1221313476565	-43.99750900268555	486.7438964843751	-928.4287719726565	-13.60453987121582	409.7457580566407	-910.5163574218752	4.573956489562989	208.0521850585938	-950.6647949218752	16.51089859008789	217.4830627441407	-858.3195800781252	-47.74499893188477	151.17529296875	-907.3374023437502	166.365234375	195.7366790771485	-871.249206542969	174.4314117431641	206.7173919677735	-915.992370605469	137.876205444336	180.9170837402344	-975.271667480469	-360.1395263671876	866.1319580078127	-557.6674194335939	-321.9803161621094	812.0074462890627	-560.3434448242189	-289.3282470703126	813.3170166015627	-562.5380249023439	-348.5052185058594	734.2346801757814	-580.7899169921876	-340.3842773437501	554.2340698242189	-611.6312255859376	-300.7432556152344	550.8941650390626	-743.1197509765626	-337.1450805664063	273.4488220214844	-651.2213745117189	-300.4476623535157	267.8547668457032	-681.3848266601564	-310.7209777832032	226.1446990966797	-721.1213378906251	-373.4244689941407	117.2571411132813	-690.7169799804689	-341.1858825683594	144.2825775146485	-775.5815429687502	-438.2780151367189	102.4068756103516	-755.7673950195314	-229.6499481201172	60.80747604370119	-769.3609619140627	-222.2609100341797	59.12080001831056	-716.7909545898439	-271.5919494628907	26.83608436584473	-665.0740356445314	nan	nan	nan	nan	nan	nan	
159	0.79	-318.6967468261719	1808.515258789063	-609.4857177734376	-470.7291259765626	1752.896484375	-688.4780273437501	-302.4499511718751	1816.953491210938	-750.9121704101564	-476.772674560547	1589.198364257813	-702.8932495117189	-462.9378356933595	1282.804321289063	-696.8024902343751	-319.3214111328126	1551.437255859375	-687.7294921875001	-331.4519653320313	1602.735473632813	-843.2303466796877	-186.147705078125	1520.699829101563	-965.2646484375002	-157.0339813232422	1557.992065429688	-946.4512939453127	-116.5147094726563	1519.719482421875	-968.081237792969	-38.79593658447266	1520.144409179688	-961.2828369140627	-34.53014373779298	1463.318725585938	-929.3897705078127	231.4982604980469	1551.810668945313	-922.1167602539065	324.8158569335938	1546.776977539063	-839.6241455078127	-351.3135375976563	1595.654541015625	-532.0252685546876	-197.0974578857422	1499.478149414063	-420.0845336914064	-171.926010131836	1538.389892578125	-440.6119689941407	-127.9338989257813	1506.393676757813	-418.166473388672	-60.23507690429689	1496.174194335938	-422.6270751953126	-51.04489898681642	1440.136352539063	-474.8609008789064	210.0801086425782	1528.8525390625	-505.6637573242189	209.9091339111329	1539.247436523438	-424.6994628906251	303.5685424804688	1549.256713867188	-491.0835876464845	-282.5905761718751	1108.053833007813	-851.662292480469	-259.1560974121094	1083.390869140625	-611.4695434570314	-467.0602111816407	1161.716064453125	-697.6309204101564	-476.5806579589845	1132.005615234375	-727.2111816406251	-463.8656311035157	1127.176025390625	-671.3634643554689	-238.3738250732422	853.9708251953127	-938.2696533203127	-184.0374298095703	789.4598388671877	-932.2711181640627	-145.1967163085938	800.8269653320315	-901.043884277344	-191.6844940185547	730.3790283203126	-931.392761230469	-151.778564453125	638.4834594726564	-926.1788330078127	-146.2281036376953	619.7327270507814	-799.0222778320315	-53.92668914794923	529.3385620117189	-890.4383544921877	-80.05294036865236	484.0551147460939	-957.3724365234377	-44.67487335205079	486.3708801269532	-928.6517333984377	-14.79039096832276	409.3007812500001	-910.8372802734377	3.481810331344605	207.8196258544922	-951.128112792969	15.64975833892823	216.8649291992188	-858.8245239257815	-48.50653076171876	150.8611145019532	-908.0216064453127	165.5369873046875	195.3543395996094	-871.8171997070315	173.2158966064453	206.1931610107422	-916.2019042968752	136.8350830078125	180.4632263183594	-975.7121582031252	-360.0417785644532	866.059753417969	-557.8094482421876	-321.7921142578126	811.9901123046877	-560.5203247070314	-289.0956115722657	813.220642089844	-562.8001708984376	-348.4356079101563	734.2020263671876	-580.9931640625001	-340.3133850097657	554.2379150390626	-611.9422607421876	-301.0491638183594	550.9443969726564	-743.4708862304689	-337.0288085937501	273.4958496093751	-651.4020996093751	-300.2756347656251	267.9563598632813	-681.7816772460939	-310.7757568359376	225.999496459961	-721.4531250000001	-373.3988952636719	117.3204879760742	-690.8247070312501	-341.3943176269532	144.2583923339844	-775.9551391601565	-438.2722473144532	102.4031829833985	-755.8955078125001	-229.6448059082032	60.64612579345705	-769.4619140625002	-222.243637084961	59.02896881103517	-716.8936157226564	-271.5371704101563	26.92887687683106	-665.1055908203126	nan	nan	nan	nan	nan	nan	
160	0.795	-318.9183349609376	1808.4296875	-609.4699096679689	-470.825897216797	1752.906982421875	-688.5191650390626	-302.5807800292969	1816.955688476563	-750.8540649414064	-476.7987365722657	1589.140014648438	-702.8883056640626	-463.0182495117189	1282.8154296875	-696.8198242187501	-319.4402160644532	1551.364135742188	-687.6970825195314	-331.5020141601563	1602.793579101563	-843.209411621094	-185.99755859375	1520.751098632813	-965.1778564453127	-156.8911895751953	1558.098022460938	-946.3397216796877	-116.3929214477539	1519.91796875	-967.934997558594	-38.66025543212891	1520.25390625	-961.1911621093752	-34.36903762817384	1463.48486328125	-929.2681884765627	231.5081024169922	1551.934814453125	-921.9945068359377	324.9716796875001	1546.936279296875	-839.591979980469	-351.3489074707032	1595.674926757813	-531.8798217773439	-197.2688598632813	1499.501098632813	-420.0658569335939	-172.157455444336	1538.343994140625	-440.5952453613282	-127.932357788086	1506.447998046875	-418.1935119628907	-60.26491165161134	1496.181762695313	-422.5856933593751	-51.12996673583986	1440.1572265625	-474.7530212402345	209.5847930908204	1528.696166992188	-505.413055419922	209.6552276611329	1539.364501953125	-424.514373779297	303.6088562011719	1549.341430664063	-490.9707031250001	-282.7266540527344	1108.033447265625	-851.793395996094	-259.1883239746094	1083.313842773438	-611.5651245117189	-467.0711059570314	1161.727172851563	-697.6066284179689	-476.6820068359376	1132.044799804688	-727.2264404296876	-463.9018859863282	1127.18212890625	-671.3385009765626	-238.714340209961	854.0691528320315	-938.3229980468752	-184.3439636230469	789.4240722656252	-932.3401489257815	-145.3651428222657	800.7060546875002	-901.1442871093752	-192.0302734375001	730.3195800781251	-931.565368652344	-152.2840270996094	638.3748779296876	-926.350769042969	-146.7281036376953	619.6875000000001	-800.3664550781252	-55.04429244995119	528.8101196289064	-890.5628662109377	-80.7791213989258	483.795135498047	-957.712829589844	-45.06543350219727	485.870330810547	-928.979675292969	-15.16720199584961	409.1515502929689	-911.2344970703127	2.360148191452027	207.4058074951172	-951.6113891601565	14.46520328521729	216.4444580078126	-859.143493652344	-50.01281738281251	150.8857727050782	-908.553894042969	164.2723388671875	194.9580230712891	-872.1340942382815	171.9162902832032	205.4441375732422	-916.544128417969	135.9483642578125	180.1920623779297	-976.1131591796877	-359.9172668457032	865.987976074219	-557.9008178710939	-321.6117858886719	811.8837890625002	-560.7764892578126	-288.8403625488282	813.2119140625002	-563.1142578125001	-348.2351989746094	734.0994262695314	-581.2047729492189	-340.0275878906251	554.2319335937501	-612.2164916992189	-301.1199340820313	550.8876953125001	-743.8619995117189	-336.9271850585938	273.4582214355469	-651.5668945312501	-300.2904968261719	267.9830017089844	-682.2748413085939	-310.7908020019532	225.9331207275391	-721.7503051757814	-373.3386230468751	117.3380813598633	-691.0272216796876	-341.3913879394532	144.3192138671875	-776.2641601562502	-438.2822570800782	102.3808059692383	-755.9788208007814	-229.6094970703126	60.59674453735353	-769.5630493164065	-222.2638397216797	58.98540496826173	-717.0380859375001	-271.4969482421876	26.88725471496583	-665.2193603515626	nan	nan	nan	nan	nan	nan	
